<svg xmlns="http://www.w3.org/2000/svg" viewBox="0 0 256 256">
  <defs>
    <linearGradient id="iosBg" x1="0" y1="0" x2="1" y2="1">
      <stop offset="0%" stop-color="#53b4ff"/>
      <stop offset="55%" stop-color="#0a84ff"/>
      <stop offset="100%" stop-color="#0057d9"/>
    </linearGradient>
    <linearGradient id="iosGlass" x1="0" y1="0" x2="0" y2="1">
      <stop offset="0%" stop-color="#ffffffb5"/>
      <stop offset="100%" stop-color="#ffffff00"/>
    </linearGradient>
    <linearGradient id="logoRing" x1="0" y1="0" x2="1" y2="1">
      <stop offset="0%" stop-color="#ffffff"/>
      <stop offset="100%" stop-color="#e9f4ff"/>
    </linearGradient>
    <linearGradient id="logoAccent" x1="0" y1="0" x2="1" y2="1">
      <stop offset="0%" stop-color="#d9ecff"/>
      <stop offset="100%" stop-color="#ffffff"/>
    </linearGradient>
  </defs>
  <rect width="256" height="256" rx="58" fill="url(#iosBg)"/>
  <rect x="8" y="8" width="240" height="240" rx="52" fill="none" stroke="#ffffff3d" stroke-width="2"/>
  <path d="M24 26h208a58 58 0 0 1-58 58H82A58 58 0 0 1 24 26Z" fill="url(#iosGlass)"/>
  <circle cx="196" cy="60" r="20" fill="#ffffff2e"/>
  <circle cx="128" cy="136" r="58" fill="none" stroke="url(#logoRing)" stroke-width="20"/>
  <path d="M126 92c25 0 44 19 44 44s-19 44-44 44" fill="none" stroke="#ffffff66" stroke-width="8" stroke-linecap="round"/>
  <path d="M86 154l31-31 22 22 34-34" fill="none" stroke="url(#logoAccent)" stroke-width="14" stroke-linecap="round" stroke-linejoin="round"/>
  <circle cx="171" cy="111" r="8" fill="#ffffff"/>
</svg>
