<svg xmlns="http://www.w3.org/2000/svg" viewBox="0 0 256 256">
  <defs>
    <linearGradient id="bg" x1="0" y1="0" x2="1" y2="1">
      <stop offset="0%" stop-color="#1f2937"/>
      <stop offset="100%" stop-color="#0b1220"/>
    </linearGradient>
    <linearGradient id="z" x1="0" y1="0" x2="1" y2="1">
      <stop offset="0%" stop-color="#f8fafc"/>
      <stop offset="100%" stop-color="#dbe5f5"/>
    </linearGradient>
  </defs>
  <rect width="256" height="256" rx="62" fill="url(#bg)"/>
  <rect x="10" y="10" width="236" height="236" rx="54" fill="none" stroke="#ffffff33" stroke-width="2"/>
  <path d="M70 78h116c7 0 12 5 12 12 0 4-2 8-5 10l-93 66h86c7 0 12 5 12 12s-5 12-12 12H70c-7 0-12-5-12-12 0-4 2-8 5-10l93-66H70c-7 0-12-5-12-12s5-12 12-12Z" fill="url(#z)"/>
</svg>
