<svg xmlns="http://www.w3.org/2000/svg" viewBox="0 0 512 512">
  <defs>
    <linearGradient id="mBg" x1="0" y1="0" x2="1" y2="1">
      <stop offset="0%" stop-color="#111827"/>
      <stop offset="100%" stop-color="#030712"/>
    </linearGradient>
    <linearGradient id="mZ" x1="0" y1="0" x2="1" y2="1">
      <stop offset="0%" stop-color="#ffffff"/>
      <stop offset="100%" stop-color="#d8e2f1"/>
    </linearGradient>
  </defs>
  <rect width="512" height="512" rx="128" fill="url(#mBg)"/>
  <rect x="20" y="20" width="472" height="472" rx="112" fill="none" stroke="#ffffff2e" stroke-width="4"/>
  <path d="M142 160h232c14 0 24 10 24 24 0 9-4 16-11 21L201 337h173c14 0 24 10 24 24s-10 24-24 24H142c-14 0-24-10-24-24 0-9 4-16 11-21l186-132H142c-14 0-24-10-24-24s10-24 24-24Z" fill="url(#mZ)"/>
</svg>
